<svg width="360" height="30" viewBox="0 0 360 30" fill="none" xmlns="http://www.w3.org/2000/svg">
<rect width="30" height="30" transform="matrix(-1 1.74846e-07 1.74846e-07 1 30 0)" fill="white"/>
<rect width="15" height="15" transform="matrix(-1 1.74846e-07 1.74846e-07 1 45 0)" fill="white"/>
<rect width="15" height="15" transform="matrix(-1 1.74846e-07 1.74846e-07 1 60 15)" fill="white"/>
<rect width="15" height="15" transform="matrix(-1 1.74846e-07 1.74846e-07 1 75 15)" fill="white"/>
<rect width="15" height="15" transform="matrix(-1 1.74846e-07 1.74846e-07 1 120 15)" fill="#D9E3FF"/>
<rect width="15" height="15" transform="matrix(-1 1.74846e-07 1.74846e-07 1 90 15)" fill="#D9E3FF"/>
<rect width="15" height="15" transform="matrix(-1 1.74846e-07 1.74846e-07 1 105 15)" fill="white"/>
<rect width="15" height="15" transform="matrix(-1 1.74846e-07 1.74846e-07 1 75 0)" fill="white"/>
<rect width="15" height="15" transform="matrix(-1 1.74846e-07 1.74846e-07 1 120 0)" fill="white"/>
<rect x="345" width="15" height="15" fill="white"/>
<rect x="300" width="15" height="15" fill="white"/>
<rect x="315" width="15" height="15" fill="white"/>
<rect x="285" width="15" height="15" fill="#C3D4FF"/>
<rect x="240" width="15" height="15" fill="white"/>
<rect x="270" width="15" height="15" fill="#D9E3FF"/>
<rect x="255" width="15" height="15" fill="#D9E3FF"/>
<rect x="330" width="15" height="15" fill="#D9E3FF"/>
</svg>
